<svg xmlns="http://www.w3.org/2000/svg" height="800" width="1200" clip-rule="evenodd" fill-rule="evenodd" stroke-linejoin="round" stroke-miterlimit="1.414" viewBox="-173.69655 -56.8255 1505.3701 340.953"><path d="M1101 183.317h-27.119v-73.334c-.346-10.607 8.313-19.694 19.098-19.694h7.95zm-63.189-46.397c0-13.667-11.712-23.586-22.424-23.586-29.765 0-30.708 47.14-.257 47.14v.064c11.066 0 22.681-9.995 22.681-23.618m-44.28-77.29v38.276c22.695-22.616 72.48-8.568 72.48 38.404 0 50.233-54.675 63.187-73.004 36.961v9.917h-27.112V78.864c.243-10.526 8.89-19.094 19.431-19.234zm-63.185 77.29c0-13.667-11.714-23.586-22.428-23.586-29.726 0-30.766 47.14-.256 47.14v.064c11.066 0 22.684-9.995 22.684-23.618m-44.084-77.29v38.276C908.9 75.31 958.74 89.3 958.74 136.31c0 50.251-54.705 63.175-73 36.961v9.917h-27.712V78.864c.251-10.65 9.114-19.272 19.765-19.234zm-90.618 51.738c-31.095 0-30.396 49.106-.173 49.106 30.758 0 31.066-49.106.173-49.106m50.703 71.95c-12.975 0-27.707 2.934-27.707-9.913h-.328c-12.02 23.37-73.592 18.104-73.592-36.505 0-48.393 54.828-63.417 73.592-36.369h.328c0-12.905 14.88-9.915 27.707-9.915z" fill="#51af33" fill-rule="nonzero"/><path d="M1087.47 85.302c-19.166 0-19.185-29.02 0-29.02 19.16 0 19.178 29.02 0 29.02" fill="#51af33"/><path d="M1153.97 155.35a19.744 19.744 0 01-8.397-2.229c-7.283-3.964-5.785-7.86-5.785-41.429h18.055V90.026h-18.055V59.631h-8.205c-10.802 0-19.695 8.89-19.695 19.696 0 64.791-.012 63.375-.012 63.375 0 19.214 13.51 40.878 46.101 40.878v-28.23zm-461.375-33.414h-10.833V87.597c10.795 0 31.508-2.208 31.508 16.675.341 10.153-5.802 17.664-20.675 17.664m39.39 33.414c-8.553-.518-11.662-5.185-16.675-11.623l-2.239-2.62c34.025-6.272 40.82-50.986 15.631-72.612-13.86-10.67-27.152-8.93-77.47-8.93v123.752h30.33v-37.024c24.707 31.054 26.764 37.024 62.693 37.024V155.35z" fill="#51af33" fill-rule="nonzero"/><path d="M318.07 87.596h-28.033c0-9.812-.019-9.585-.019-9.585 0-10.104 8.216-18.84 18.99-18.84h67.75v27.968h-27.112v96.178h-11.818c-10.806 0-19.695-8.887-19.695-19.698z" fill="#254f17" fill-rule="nonzero"/><path d="M551.054 158.571v24.746h27.966v-44.05c16.276 23.977 22.187 44.247 64.93 44.247V158.96c-10.879 0-23.735-.768-30.332-11.092-2.366-3.705-8.499-12.494-10.77-16.48l34.863-40.837h-32.824l-25.67 33.418h-.327V78.864c0-11.726-9.493-19.684-19.694-19.233h-8.142zm-36.959-42.083c0-16.6-36.07-.352-2.3 9.258 15.692 4.326 32.366 8.993 32.366 29.017 0 40.142-70.937 43.641-75.364.523h27.507c.802 12.536 20.088 10.695 20.088 1.834 0-14.866-46.463-10.109-46.61-38.99 0-37.826 67.47-43.384 71.424-1.444zm-103.153-5.12c-31.053 0-30.549 48.676-.18 49.106 30.712 0 31.154-49.106.18-49.106m50.697 71.95c-12.979 0-27.702 2.934-27.702-9.913h-.657c-12.019 23.37-73.592 18.104-73.592-36.505 0-48.409 54.828-63.406 73.592-36.369h.33c0-12.908 14.883-9.915 27.703-9.915z" fill="#254f17" fill-rule="nonzero"/><path d="M252.091 103.42c-25.356-42.087-31.97-10.329-55.8-50.353-16.759-28.226-54.52-64.907-77.01-49.367l-5.316 3.807c-4.387-1.356-8.615-1.25-12.21 1.51a9.866 9.866 0 00-3.284 9.191c1.286 5.818 4.118 12.212 14.84 22.125-34.172-6.213-69.11 6.971-90.662 34.202-22.032 0-28.47 21.528-17.2 34.267-16.278 60.36 30.141 118.501 90.766 118.501 34.321 0 66.015-18.798 82.481-48.909 28.215 1.59 30.76-21.074 9.978-27.837 2.587-13.757-4.109-.636 31.511-4 29.538-1.809 47.073-18.453 31.905-43.137" fill="#51af33" fill-rule="nonzero"/><path d="M223.795 107.16c-2.808-.385-6.346-2.582-7.154-5.908a5.043 5.043 0 01-.138-1.185c0-2.775 2.278-5.056 5.054-5.056.07 0 .138.005.206.005a7.774 7.774 0 017.285 6.236c.101.394.106.794.146 1.195.307 2.946-2.692 5.088-5.399 4.713m22.65 0c-23.24-38.602-31.247-10.764-56.064-50.548C160.868 8.408 124.757 1.66 124.757 9.148c0 0 40.771 21.86 60.305 59.346.444.7-.63 1.34-1.05.66C167.208 47.88 115.28 7.57 106.352 14.66c-7.353 5.843 31.71 42.935 63.545 59.084 2.734 1.333-1.993 8.614-14.046 8.206-16.806 0-32.824-24.813-69.194-25.276a75.523 75.523 0 00-58.232 26.261.733.733 0 01-.92 0c-15.398-8.123-28.778 13.68-14.375 23.307.557.333.807 1.022.59 1.64-22.729 71.008 54.753 126.471 112.063 89.151 27.952-16.887 24.371-38.837-13.59-23.957a.94.94 0 01-.24.031c-.786 0-1.226-.94-.678-1.544 26.676-27.734 6.636-73.922-31.464-73.922h-.049c-17.809-1.05-34.36 9.611-40.767 26.262-.119.463-.538.79-1.017.79a1.056 1.056 0 01-1.019-1.315c4.536-20.78 22.612-36.04 43.855-37.03 37.93-2.282 63.475 39.39 43.33 72.222-.835 1.185.55 2.716 1.836 1.966 7.965-4.435 14.15-11.578 14.15-11.578a.65.65 0 01.49.22c23.633 25.866 53.896 26.257 54.685 16.281.92-11.423-28.296-4.005-30.132-32.36 0-.566.653-.856 1.048-.529 3.782 3.103 9.492.751 10.046-4.069.09-.488.667-.686 1.052-.399 12.603 12.278 25.403 13.131 42.867 11.817 24.945-1.379 36.565-15.098 26.26-32.76" fill="#fff" fill-rule="nonzero"/></svg>